<?xml version="1.0" encoding="utf-8"?>
<svg xmlns="http://www.w3.org/2000/svg" viewBox="0 0 50 50" enable-background="new 0 0 50 50">
  <path style="text-indent: 0px; text-align: start; line-height: normal; text-transform: none; fill: rgb(255, 255, 255);" d="M 24.117 3.83 C 12.017 3.83 2.117 13.73 2.117 25.83 C 2.117 37.93 12.017 47.83 24.117 47.83 C 36.217 47.83 46.117 37.93 46.117 25.83 C 46.117 21.53 44.905 17.636 42.805 14.236 L 41.43 15.83 C 43.13 18.83 44.117 22.23 44.117 25.83 C 44.117 36.83 35.117 45.83 24.117 45.83 C 13.117 45.83 4.117 36.83 4.117 25.83 C 4.117 14.83 13.117 5.83 24.117 5.83 C 29.317 5.83 34.017 7.842 37.617 11.142 L 38.93 9.642 C 35.03 6.042 29.817 3.83 24.117 3.83 Z M 42.367 8.58 L 23.023 31.392 L 14.898 23.799 L 13.523 25.267 L 22.43 33.549 L 23.211 34.267 L 23.867 33.486 L 43.867 9.861 L 42.367 8.58 Z" overflow="visible" enable-background="accumulate" font-family="Bitstream Vera Sans"/>
</svg>