<svg xmlns="http://www.w3.org/2000/svg" viewBox="0 0 16 16" fill="#000000" id="Timer--Streamline-Phosphor" height="16" width="16">
  <desc>
    Timer Streamline Icon: https://streamlinehq.com
  </desc>
  <path d="M8 2.4C2.82694375 2.4 -0.40621875 8 2.18030625 12.48c2.58653125 4.48 9.05285625 4.48 11.6393875 0 0.5898 -1.02156875 0.90030625 -2.18039375 0.90030625 -3.36C14.71575625 5.41040625 11.70959375 2.40424375 8 2.4Zm0 12.32c-4.31088125 0 -7.00518125 -4.66666875 -4.84974375 -8.4 2.15544375 -3.73333125 7.54404375 -3.73333125 9.6994875 0 0.4915 0.85130625 0.75025625 1.81699375 0.75025625 2.8 -0.003475 3.09135625 -2.50864375 5.596525 -5.6 5.6Zm3.1962 -8.7962c0.2189875 0.21874375 0.2189875 0.57365625 0 0.7924l-2.8 2.8c-0.30499375 0.30499375 -0.82578125 0.16545 -0.93741875 -0.25118125 -0.0518125 -0.19335625 0.00346875 -0.39966875 0.14501875 -0.54121875l2.8 -2.8c0.21874375 -0.2189875 0.57365625 -0.2189875 0.7924 0ZM5.76 0.72c0 -0.30928125 0.25071875 -0.56 0.56 -0.56h3.36c0.4310875 0 0.70051875 0.46666875 0.484975 0.84 -0.1000375 0.1732625 -0.28490625 0.28 -0.484975 0.28h-3.36c-0.30928125 0 -0.56 -0.25071875 -0.56 -0.56Z" stroke-width="0.0625"></path>
</svg>